<svg width="143" height="125" viewBox="0 0 143 125" fill="none" xmlns="http://www.w3.org/2000/svg">
<g clip-path="url(#clip0_91_7)">
<path d="M94.0074 6.65163C93.7764 6.47564 91.6336 4.88647 87.8162 3.35725C82.8986 1.38695 77.256 0.345459 71.4986 0.345459C65.7413 0.345459 60.099 1.38695 55.1809 3.35725C51.364 4.88647 49.2211 6.47564 48.9895 6.6519C47.8273 7.53546 47.145 8.90919 47.145 10.3663V17.6948L51.8304 20.193L56.516 17.6948V13.0113C59.0874 11.7031 64.2296 9.68727 71.4984 9.68727C78.7673 9.68727 83.9093 11.7031 86.4808 13.0113V17.6945L91.1664 20.1928L95.8521 17.6945V10.3663C95.8521 8.90893 95.1702 7.53517 94.0074 6.65163Z" fill="#E8834D"/>
<path d="M47.1455 17.6948V22.8524L51.8312 25.3506L56.5167 22.8524V17.6948H47.1455Z" fill="#D66E41"/>
<path d="M95.8524 17.6948H86.4819V22.8524L91.1676 25.3506L95.8524 22.8524V17.6948Z" fill="#D66E41"/>
<path d="M3.90747 74.238V115.735C3.90747 120.661 7.91341 124.655 12.8549 124.655H130.145C135.087 124.655 139.092 120.661 139.092 115.735V74.238H3.90747Z" fill="#365E7D"/>
<path d="M3.90747 69.0804V74.2382C11.3408 80.1219 30.9864 91.5437 71.4999 91.5437C112.013 91.5437 131.659 80.1219 139.092 74.238V69.0801H3.90747V69.0804Z" fill="#2B4D66"/>
<path d="M3.51908 66.1102C10.643 71.8923 30.2614 83.7268 71.5 83.7268C112.738 83.7268 132.357 71.8923 139.481 66.1102C141.569 64.4152 142.781 59.3771 142.781 56.6925V31.7724C142.781 26.8461 138.775 22.8525 133.834 22.8525H9.16639C4.22493 22.8525 0.218994 26.8461 0.218994 31.7724V56.6925C0.218994 59.3771 1.43077 64.4152 3.51908 66.1102Z" fill="#407093"/>
<path d="M139.481 63.6117C132.357 69.3938 112.738 81.2283 71.5 81.2283C30.2614 81.2283 10.6433 69.3935 3.51908 63.6117C1.43077 61.9168 0.218994 59.3769 0.218994 56.6924V61.8502C0.218994 64.5347 1.43077 67.0746 3.51908 68.7695C10.643 74.5516 30.2614 86.386 71.5 86.386C112.738 86.386 132.357 74.5516 139.481 68.7695C141.569 67.0746 142.781 64.5347 142.781 61.8502V56.6924C142.781 59.3769 141.569 61.9168 139.481 63.6117Z" fill="#365E7D"/>
<path d="M71.4992 94.9701C76.128 94.9701 79.8803 91.5437 79.8803 84.1168V79.0508C79.8803 77.4087 78.5449 76.0776 76.8979 76.0776H66.1005C64.4533 76.0776 63.1182 77.409 63.1182 79.0508V84.1176C63.1178 91.5437 66.8704 94.9701 71.4992 94.9701Z" fill="#FFE27A"/>
<path d="M71.4992 92.4718C66.8704 92.4718 63.1182 88.7312 63.1182 84.1167V89.2748C63.1182 93.8887 66.8704 97.6301 71.4992 97.6301C76.128 97.6301 79.8803 93.8887 79.8803 89.2748V84.1167C79.8803 88.7312 76.128 92.4718 71.4992 92.4718Z" fill="#F9CF58"/>
</g>
<defs>
<clipPath id="clip0_91_7">
<rect width="142.562" height="125" fill="white" transform="translate(0.218994)"/>
</clipPath>
</defs>
</svg>
