<svg width="111" height="125" viewBox="0 0 111 125" fill="none" xmlns="http://www.w3.org/2000/svg">
<g clip-path="url(#clip0_91_46)">
<path d="M110.81 0H0.190186V125H110.81V0Z" fill="white"/>
<path d="M94.9603 14.4292H15.9851C7.31103 14.4292 0.279297 21.467 0.279297 30.1485V109.191C0.279297 117.873 7.31103 124.911 15.9851 124.911H94.9603C103.634 124.911 110.666 117.873 110.666 109.191V30.1485C110.666 21.467 103.634 14.4292 94.9603 14.4292Z" fill="white" stroke="#BDB9B9" stroke-width="0.25"/>
<path d="M0.190186 30.1484C0.190186 21.4176 7.26187 14.3398 15.9852 14.3398H94.9604C103.684 14.3398 110.755 21.4176 110.755 30.1484V39.6336H0.190186V30.1484Z" fill="#1B4E65"/>
<path d="M21.3114 31.1486V27.2218H25.9029V25.4433H21.3114V23.4371H26.0025V21.6587H19.2927V31.1486H21.3114ZM34.1237 31.1486V29.3701H29.4325V27.2218H34.0242V25.4433H29.4325V23.4371H34.1237V21.6587H27.4139V31.1486H34.1237ZM40.8477 31.1486C42.6531 31.1486 43.6055 30.0103 43.6055 28.5876C43.6055 27.3925 42.7952 26.4108 41.7859 26.2543C42.6815 26.0693 43.4208 25.2725 43.4208 24.0774C43.4208 22.8111 42.4967 21.6587 40.6913 21.6587H35.7017V31.1486H40.8477ZM40.2507 25.4575H37.7203V23.3945H40.2507C40.933 23.3945 41.3595 23.8355 41.3595 24.4331C41.3595 25.0307 40.933 25.4575 40.2507 25.4575ZM40.3218 29.3985H37.7203V27.1933H40.3218C41.1178 27.1933 41.5443 27.7055 41.5443 28.3031C41.5443 28.986 41.0894 29.3985 40.3218 29.3985ZM52.8042 31.1486L50.6719 27.5348C51.6954 27.2929 52.7473 26.3966 52.7473 24.7176C52.7473 22.9534 51.539 21.6587 49.5631 21.6587H45.1278V31.1486H47.1464V27.7766H48.6249L50.4871 31.1486H52.8042ZM49.2645 25.9981H47.1464V23.4371H49.2645C50.0748 23.4371 50.6861 23.9209 50.6861 24.7176C50.6861 25.5144 50.0748 25.9981 49.2645 25.9981ZM58.5413 31.3193C61.427 31.3193 62.8202 29.7116 62.8202 27.3498V21.6587H60.7589V27.2929C60.7589 28.6161 60.0055 29.5266 58.5413 29.5266C57.0771 29.5266 56.3094 28.6161 56.3094 27.2929V21.6587H54.2624V27.364C54.2624 29.6973 55.6556 31.3193 58.5413 31.3193ZM73.0584 31.1486L69.4048 21.6587H66.8744L63.2068 31.1486H65.5097L66.1067 29.5408H70.1724L70.7553 31.1486H73.0584ZM69.618 27.7624H66.6611L68.1396 23.679L69.618 27.7624ZM81.6104 31.1486L79.4779 27.5348C80.5013 27.2929 81.5533 26.3966 81.5533 24.7176C81.5533 22.9534 80.345 21.6587 78.3689 21.6587H73.9334V31.1486H75.9524V27.7766H77.4311L79.2931 31.1486H81.6104ZM78.0706 25.9981H75.9524V23.4371H78.0706C78.8806 23.4371 79.4922 23.9209 79.4922 24.7176C79.4922 25.5144 78.8806 25.9981 78.0706 25.9981ZM87.4811 31.1486V27.2644L91.1058 21.6587H88.8035L86.4719 25.4717L84.1118 21.6587H81.8095L85.4628 27.2644V31.1486H87.4811Z" fill="#F7F7F4"/>
<path d="M12.4312 111.563V49.1191" stroke="#8AD0DA" stroke-width="1.1066"/>
<path d="M25.0674 111.563V49.1191" stroke="#8AD0DA" stroke-width="1.1066"/>
<path d="M36.9136 111.563V49.1191" stroke="#8AD0DA" stroke-width="1.1066"/>
<path d="M49.5496 111.563V49.1191" stroke="#8AD0DA" stroke-width="1.1066"/>
<path d="M62.1858 111.563V49.1191" stroke="#8AD0DA" stroke-width="1.1066"/>
<path d="M75.2166 111.563V49.1191" stroke="#8AD0DA" stroke-width="1.1066"/>
<path d="M87.0627 111.563V49.1191" stroke="#8AD0DA" stroke-width="1.1066"/>
<path d="M99.6992 111.563V49.1191" stroke="#8AD0DA" stroke-width="1.1066"/>
<path d="M7.29785 52.6758H104.437" stroke="#8AD0DA" stroke-width="1.1066"/>
<path d="M7.29785 66.9036H102.858" stroke="#8AD0DA" stroke-width="1.1066"/>
<path d="M7.29785 80.3408H102.858" stroke="#8AD0DA" stroke-width="1.1066"/>
<path d="M7.29785 94.5686H102.858" stroke="#8AD0DA" stroke-width="1.1066"/>
<path d="M8.08765 108.006H103.648" stroke="#8AD0DA" stroke-width="1.1066"/>
<path d="M21.5136 69.6692C19.888 71.453 17.8491 73.4165 16.5995 75.4815C16.1258 76.2644 15.1956 76.653 15.1956 77.5737" stroke="#F47575" stroke-width="2.2132" stroke-linecap="round" stroke-linejoin="round"/>
<path d="M15.9851 70.4597C17.7284 72.1714 19.843 73.3593 21.3107 75.315C21.6541 75.7729 21.888 76.4964 22.3031 76.7829" stroke="#F47575" stroke-width="2.2132" stroke-linecap="round" stroke-linejoin="round"/>
<path d="M34.1496 55.4434C32.5241 57.2272 30.4852 59.1904 29.2356 61.2554C28.7618 62.0383 27.8315 62.4268 27.8315 63.3476" stroke="#F47575" stroke-width="2.2132" stroke-linecap="round" stroke-linejoin="round"/>
<path d="M28.6213 56.2339C30.3646 57.9459 32.4792 59.1334 33.9468 61.0894C34.2903 61.5472 34.5243 62.2705 34.9394 62.5574" stroke="#F47575" stroke-width="2.2132" stroke-linecap="round" stroke-linejoin="round"/>
<path d="M45.9958 56.2327C44.3703 58.0165 42.3314 59.9797 41.0817 62.0447C40.608 62.8276 39.6777 63.2161 39.6777 64.137" stroke="#F47575" stroke-width="2.2132" stroke-linecap="round" stroke-linejoin="round"/>
<path d="M40.4678 57.0227C42.2111 58.7346 44.3256 59.9221 45.7933 61.8782C46.1367 62.3359 46.3707 63.0593 46.7858 63.3461" stroke="#F47575" stroke-width="2.2132" stroke-linecap="round" stroke-linejoin="round"/>
<path d="M21.5136 55.4434C19.888 57.2272 17.8491 59.1904 16.5995 61.2554C16.1258 62.0383 15.1956 62.4268 15.1956 63.3476" stroke="#F47575" stroke-width="2.2132" stroke-linecap="round" stroke-linejoin="round"/>
<path d="M15.9851 56.2339C17.7284 57.9459 19.843 59.1334 21.3107 61.0894C21.6541 61.5472 21.888 62.2705 22.3031 62.5574" stroke="#F47575" stroke-width="2.2132" stroke-linecap="round" stroke-linejoin="round"/>
<path d="M12.0848 0.676514H8.57045C7.4507 0.676514 6.54297 1.58503 6.54297 2.70574V25.433C6.54297 26.5537 7.4507 27.4622 8.57045 27.4622H12.0848C13.2045 27.4622 14.1123 26.5537 14.1123 25.433V2.70574C14.1123 1.58503 13.2045 0.676514 12.0848 0.676514Z" fill="#1B4E65" stroke="white" stroke-width="1.89394"/>
<path d="M101.564 0.676514H98.0497C96.93 0.676514 96.0222 1.58503 96.0222 2.70574V25.433C96.0222 26.5537 96.93 27.4622 98.0497 27.4622H101.564C102.684 27.4622 103.592 26.5537 103.592 25.433V2.70574C103.592 1.58503 102.684 0.676514 101.564 0.676514Z" fill="#1B4E65" stroke="white" stroke-width="1.89394"/>
</g>
<defs>
<clipPath id="clip0_91_46">
<rect width="110.619" height="125" fill="white" transform="translate(0.190186)"/>
</clipPath>
</defs>
</svg>
